<?xml version="1.0" encoding="utf-8"?>
<svg version="1.1" id="Layer_1" xmlns="http://www.w3.org/2000/svg" xmlns:xlink="http://www.w3.org/1999/xlink" x="0px" y="0px" viewBox="0 0 16 16" style="enable-background:new 0 0 16 16;" xml:space="preserve">
	<path class="st0" fill-rule="evenodd" clip-rule="evenodd"
    fill="#00BED9"
d="M9.2,7.4C8.4,7.4,7.6,8,7.4,8.8c-0.2,0.8,0.2,1.7,0.9,2.1c0.7,0.4,1.7,0.2,2.2-0.4h5.3c0.4-2-0.2-4-1.5-5.6
	c-1.3-1.5-3.2-2.4-5.2-2.4V0C4.1,0,0,4.1,0,9.2h2.5c0,3,2,5.6,4.8,6.5c2.9,0.9,6-0.3,7.6-2.8h-3.5c-1.3,0.8-3,0.8-4.3,0.1
	c-1.4-0.8-2.2-2.2-2.2-3.7H2.5c0-3.7,3-6.8,6.8-6.8v2.5c1.9,0,3.6,1.3,4.1,3.1h-2.8C10.3,7.6,9.8,7.4,9.2,7.4L9.2,7.4z"/>
</svg>
